<svg width="247" height="44" viewBox="0 0 247 44" fill="none" xmlns="http://www.w3.org/2000/svg">
<path d="M85.4393 17.1253C84.1943 17.1253 83.0481 16.9279 82.0005 16.5332C80.9682 16.1233 80.0648 15.554 79.2905 14.8252C78.5163 14.0813 77.9166 13.2083 77.4915 12.2063C77.0664 11.2043 76.8538 10.1112 76.8538 8.92701C76.8538 7.74282 77.0664 6.64971 77.4915 5.64769C77.9166 4.64568 78.5163 3.7803 79.2905 3.05157C80.08 2.30765 80.9985 1.73832 82.0461 1.34359C83.0936 0.933673 84.2399 0.728715 85.4848 0.728715C86.836 0.728715 88.0506 0.948854 89.1285 1.38913C90.2216 1.82941 91.1401 2.47465 91.884 3.32484L90.0166 5.14669C89.3942 4.52422 88.7186 4.06876 87.9898 3.7803C87.2763 3.47666 86.4868 3.32484 85.6214 3.32484C84.7864 3.32484 84.0122 3.46148 83.2986 3.73476C82.585 4.00804 81.9702 4.39518 81.454 4.89618C80.9378 5.39719 80.5355 5.98929 80.247 6.67248C79.9737 7.35567 79.8371 8.10718 79.8371 8.92701C79.8371 9.73166 79.9737 10.4756 80.247 11.1588C80.5355 11.842 80.9378 12.4417 81.454 12.9578C81.9702 13.4589 82.5774 13.846 83.2758 14.1193C83.9742 14.3925 84.7485 14.5292 85.5987 14.5292C86.3881 14.5292 87.1472 14.4077 87.876 14.1648C88.6199 13.9067 89.3259 13.4816 89.9939 12.8895L91.6791 15.0985C90.8441 15.7665 89.8724 16.2751 88.7641 16.6243C87.671 16.9583 86.5627 17.1253 85.4393 17.1253ZM88.878 14.7114V8.74483H91.6791V15.0985L88.878 14.7114ZM95.3105 16.8976V4.73677H98.0205V8.08441L97.7017 7.10517C98.066 6.28534 98.6354 5.66288 99.4096 5.23778C100.199 4.81268 101.178 4.60013 102.347 4.60013V7.31013C102.226 7.27976 102.112 7.26458 102.006 7.26458C101.899 7.2494 101.793 7.24181 101.687 7.24181C100.609 7.24181 99.7512 7.56063 99.1136 8.19828C98.4759 8.82074 98.1571 9.75444 98.1571 10.9994V16.8976H95.3105ZM110.117 17.057C108.872 17.057 107.763 16.7913 106.792 16.2599C105.82 15.7134 105.053 14.9695 104.492 14.0282C103.93 13.0869 103.649 12.0166 103.649 10.8172C103.649 9.60262 103.93 8.53228 104.492 7.60618C105.053 6.66489 105.82 5.92856 106.792 5.39719C107.763 4.86582 108.872 4.60013 110.117 4.60013C111.377 4.60013 112.493 4.86582 113.464 5.39719C114.451 5.92856 115.218 6.6573 115.764 7.5834C116.326 8.50951 116.607 9.58743 116.607 10.8172C116.607 12.0166 116.326 13.0869 115.764 14.0282C115.218 14.9695 114.451 15.7134 113.464 16.2599C112.493 16.7913 111.377 17.057 110.117 17.057ZM110.117 14.6203C110.815 14.6203 111.437 14.4685 111.984 14.1648C112.53 13.8612 112.956 13.4209 113.259 12.844C113.578 12.2671 113.737 11.5915 113.737 10.8172C113.737 10.0277 113.578 9.35211 113.259 8.79038C112.956 8.21346 112.53 7.77318 111.984 7.46954C111.437 7.1659 110.822 7.01408 110.139 7.01408C109.441 7.01408 108.818 7.1659 108.272 7.46954C107.741 7.77318 107.315 8.21346 106.997 8.79038C106.678 9.35211 106.518 10.0277 106.518 10.8172C106.518 11.5915 106.678 12.2671 106.997 12.844C107.315 13.4209 107.741 13.8612 108.272 14.1648C108.818 14.4685 109.433 14.6203 110.117 14.6203ZM121.683 16.8976L117.219 4.73677H119.906L123.732 15.4629H122.457L126.465 4.73677H128.856L132.75 15.4629H131.498L135.437 4.73677H137.965L133.479 16.8976H130.746L127.194 7.40122H128.036L124.415 16.8976H121.683ZM144.834 17.057C143.497 17.057 142.465 16.7154 141.736 16.0322C141.008 15.3338 140.643 14.309 140.643 12.9578V2.04955H143.49V12.8895C143.49 13.4664 143.634 13.9143 143.923 14.2331C144.226 14.552 144.644 14.7114 145.175 14.7114C145.813 14.7114 146.344 14.5444 146.769 14.2104L147.566 16.2372C147.232 16.5104 146.822 16.7154 146.337 16.852C145.851 16.9887 145.35 17.057 144.834 17.057ZM138.639 7.10517V4.82786H146.746V7.10517H138.639ZM156.808 4.60013C157.78 4.60013 158.645 4.78991 159.404 5.16946C160.179 5.54901 160.786 6.13352 161.226 6.92299C161.666 7.69727 161.887 8.69928 161.887 9.92903V16.8976H159.04V10.2934C159.04 9.21547 158.782 8.41082 158.266 7.87945C157.765 7.34808 157.059 7.0824 156.148 7.0824C155.48 7.0824 154.888 7.21904 154.372 7.49231C153.855 7.76559 153.453 8.1755 153.165 8.72206C152.891 9.25343 152.755 9.92903 152.755 10.7489V16.8976H149.908V-2.27243e-05H152.755V8.01609L152.14 7.01408C152.565 6.23979 153.18 5.64769 153.984 5.23778C154.804 4.81268 155.745 4.60013 156.808 4.60013ZM170.713 17.1253C169.468 17.1253 168.276 16.9507 167.137 16.6015C165.999 16.2372 165.095 15.7741 164.427 15.2124L165.452 12.9123C166.09 13.4133 166.879 13.8308 167.821 14.1648C168.762 14.4988 169.726 14.6658 170.713 14.6658C171.548 14.6658 172.223 14.5747 172.74 14.3925C173.256 14.2104 173.635 13.9675 173.878 13.6638C174.121 13.345 174.243 12.9882 174.243 12.5935C174.243 12.1077 174.068 11.7205 173.719 11.4321C173.37 11.1284 172.914 10.8931 172.352 10.7261C171.806 10.5439 171.191 10.3769 170.508 10.2251C169.84 10.0733 169.164 9.89866 168.481 9.7013C167.813 9.48875 167.198 9.22306 166.636 8.90424C166.09 8.57024 165.642 8.12996 165.293 7.5834C164.944 7.03685 164.769 6.33848 164.769 5.48828C164.769 4.62291 164.997 3.83344 165.452 3.11989C165.923 2.39115 166.629 1.81423 167.57 1.38913C168.527 0.948854 169.734 0.728715 171.191 0.728715C172.147 0.728715 173.096 0.850172 174.038 1.09308C174.979 1.336 175.799 1.68518 176.497 2.14065L175.563 4.44072C174.85 4.01563 174.114 3.70439 173.354 3.50703C172.595 3.29448 171.867 3.1882 171.168 3.1882C170.348 3.1882 169.68 3.28689 169.164 3.48425C168.663 3.68162 168.291 3.93972 168.048 4.25854C167.821 4.57736 167.707 4.94173 167.707 5.35164C167.707 5.83747 167.874 6.2322 168.208 6.53584C168.557 6.8243 169.005 7.05203 169.551 7.21904C170.113 7.38604 170.736 7.55304 171.419 7.72004C172.102 7.87186 172.778 8.04646 173.446 8.24382C174.129 8.44119 174.744 8.69928 175.29 9.01811C175.852 9.33693 176.3 9.76962 176.634 10.3162C176.983 10.8627 177.158 11.5535 177.158 12.3885C177.158 13.2387 176.922 14.0282 176.452 14.7569C175.996 15.4705 175.29 16.0474 174.334 16.4877C173.377 16.9128 172.17 17.1253 170.713 17.1253ZM186.561 17.057C185.574 17.057 184.671 16.8293 183.851 16.3738C183.046 15.9183 182.401 15.2352 181.915 14.3242C181.444 13.3981 181.209 12.2291 181.209 10.8172C181.209 9.39007 181.437 8.22105 181.892 7.31013C182.363 6.39921 183 5.7236 183.805 5.28333C184.61 4.82786 185.528 4.60013 186.561 4.60013C187.76 4.60013 188.815 4.85823 189.726 5.37442C190.652 5.89061 191.381 6.61175 191.912 7.53786C192.459 8.46396 192.732 9.55707 192.732 10.8172C192.732 12.0773 192.459 13.178 191.912 14.1193C191.381 15.0454 190.652 15.7665 189.726 16.2827C188.815 16.7989 187.76 17.057 186.561 17.057ZM179.82 21.3156V4.73677H182.53V7.60618L182.439 10.84L182.666 14.0737V21.3156H179.82ZM186.242 14.6203C186.925 14.6203 187.532 14.4685 188.064 14.1648C188.61 13.8612 189.043 13.4209 189.362 12.844C189.681 12.2671 189.84 11.5915 189.84 10.8172C189.84 10.0277 189.681 9.35211 189.362 8.79038C189.043 8.21346 188.61 7.77318 188.064 7.46954C187.532 7.1659 186.925 7.01408 186.242 7.01408C185.559 7.01408 184.944 7.1659 184.397 7.46954C183.851 7.77318 183.418 8.21346 183.099 8.79038C182.78 9.35211 182.621 10.0277 182.621 10.8172C182.621 11.5915 182.78 12.2671 183.099 12.844C183.418 13.4209 183.851 13.8612 184.397 14.1648C184.944 14.4685 185.559 14.6203 186.242 14.6203ZM202.332 4.60013C203.304 4.60013 204.169 4.78991 204.928 5.16946C205.703 5.54901 206.31 6.13352 206.75 6.92299C207.19 7.69727 207.41 8.69928 207.41 9.92903V16.8976H204.564V10.2934C204.564 9.21547 204.306 8.41082 203.79 7.87945C203.289 7.34808 202.583 7.0824 201.672 7.0824C201.004 7.0824 200.412 7.21904 199.895 7.49231C199.379 7.76559 198.977 8.1755 198.688 8.72206C198.415 9.25343 198.278 9.92903 198.278 10.7489V16.8976H195.432V-2.27243e-05H198.278V8.01609L197.664 7.01408C198.089 6.23979 198.704 5.64769 199.508 5.23778C200.328 4.81268 201.269 4.60013 202.332 4.60013ZM216.76 17.057C215.409 17.057 214.224 16.7913 213.207 16.2599C212.205 15.7134 211.423 14.9695 210.862 14.0282C210.315 13.0869 210.042 12.0166 210.042 10.8172C210.042 9.60262 210.308 8.53228 210.839 7.60618C211.385 6.66489 212.129 5.92856 213.071 5.39719C214.027 4.86582 215.113 4.60013 216.327 4.60013C217.511 4.60013 218.567 4.85823 219.493 5.37442C220.419 5.89061 221.148 6.61934 221.679 7.56063C222.21 8.50192 222.476 9.61021 222.476 10.8855C222.476 11.007 222.468 11.1436 222.453 11.2954C222.453 11.4472 222.446 11.5915 222.43 11.7281H212.296V9.83794H220.927L219.811 10.43C219.827 9.73166 219.682 9.11679 219.379 8.58542C219.075 8.05405 218.658 7.63654 218.126 7.3329C217.61 7.02926 217.01 6.87744 216.327 6.87744C215.629 6.87744 215.014 7.02926 214.483 7.3329C213.966 7.63654 213.556 8.06164 213.253 8.60819C212.964 9.13956 212.82 9.76962 212.82 10.4984V10.9538C212.82 11.6826 212.987 12.3278 213.321 12.8895C213.655 13.4513 214.126 13.8839 214.733 14.1876C215.34 14.4912 216.039 14.6431 216.828 14.6431C217.511 14.6431 218.126 14.5368 218.673 14.3242C219.219 14.1117 219.705 13.7777 220.13 13.3222L221.656 15.0757C221.11 15.7134 220.419 16.2068 219.584 16.556C218.764 16.89 217.823 17.057 216.76 17.057ZM225.21 16.8976V4.73677H227.92V8.08441L227.601 7.10517C227.966 6.28534 228.535 5.66288 229.309 5.23778C230.099 4.81268 231.078 4.60013 232.247 4.60013V7.31013C232.126 7.27976 232.012 7.26458 231.906 7.26458C231.799 7.2494 231.693 7.24181 231.587 7.24181C230.509 7.24181 229.651 7.56063 229.013 8.19828C228.376 8.82074 228.057 9.75444 228.057 10.9994V16.8976H225.21ZM240.267 17.057C238.916 17.057 237.731 16.7913 236.714 16.2599C235.712 15.7134 234.93 14.9695 234.369 14.0282C233.822 13.0869 233.549 12.0166 233.549 10.8172C233.549 9.60262 233.814 8.53228 234.346 7.60618C234.892 6.66489 235.636 5.92856 236.578 5.39719C237.534 4.86582 238.62 4.60013 239.834 4.60013C241.018 4.60013 242.073 4.85823 243 5.37442C243.926 5.89061 244.654 6.61934 245.186 7.56063C245.717 8.50192 245.983 9.61021 245.983 10.8855C245.983 11.007 245.975 11.1436 245.96 11.2954C245.96 11.4472 245.953 11.5915 245.937 11.7281H235.803V9.83794H244.434L243.318 10.43C243.334 9.73166 243.189 9.11679 242.886 8.58542C242.582 8.05405 242.165 7.63654 241.633 7.3329C241.117 7.02926 240.517 6.87744 239.834 6.87744C239.136 6.87744 238.521 7.02926 237.99 7.3329C237.473 7.63654 237.063 8.06164 236.76 8.60819C236.471 9.13956 236.327 9.76962 236.327 10.4984V10.9538C236.327 11.6826 236.494 12.3278 236.828 12.8895C237.162 13.4513 237.633 13.8839 238.24 14.1876C238.847 14.4912 239.546 14.6431 240.335 14.6431C241.018 14.6431 241.633 14.5368 242.18 14.3242C242.726 14.1117 243.212 13.7777 243.637 13.3222L245.163 15.0757C244.616 15.7134 243.926 16.2068 243.091 16.556C242.271 16.89 241.33 17.057 240.267 17.057Z" fill="#FF5A18"/>
<path d="M105.871 43.2543V32.3408H107.898V43.2543H105.871ZM112.565 43.2543V32.3408H114.233L121.077 40.7442H120.251V32.3408H122.262V43.2543H120.594L113.75 34.8509H114.576V43.2543H112.565ZM126.902 43.2543V32.3408H131.672C132.857 32.3408 133.897 32.5695 134.791 33.0268C135.684 33.4841 136.381 34.1181 136.88 34.9289C137.379 35.7396 137.628 36.6958 137.628 37.7976C137.628 38.8889 137.379 39.8451 136.88 40.6663C136.381 41.477 135.684 42.111 134.791 42.5683C133.897 43.0257 132.857 43.2543 131.672 43.2543H126.902ZM128.928 41.5393H131.579C132.4 41.5393 133.107 41.3834 133.699 41.0716C134.302 40.7598 134.765 40.3233 135.087 39.762C135.419 39.2007 135.586 38.5459 135.586 37.7976C135.586 37.0388 135.419 36.384 135.087 35.8331C134.765 35.2719 134.302 34.8353 133.699 34.5235C133.107 34.2117 132.4 34.0558 131.579 34.0558H128.928V41.5393ZM146.19 43.4102C144.693 43.4102 143.519 42.9893 142.667 42.1474C141.825 41.3055 141.404 40.0894 141.404 38.4991V32.3408H143.431V38.4212C143.431 39.5437 143.67 40.3596 144.148 40.8689C144.636 41.3782 145.322 41.6329 146.206 41.6329C147.089 41.6329 147.77 41.3782 148.248 40.8689C148.726 40.3596 148.965 39.5437 148.965 38.4212V32.3408H150.961V38.4991C150.961 40.0894 150.535 41.3055 149.682 42.1474C148.841 42.9893 147.676 43.4102 146.19 43.4102ZM158.898 43.4102C158.045 43.4102 157.229 43.2907 156.45 43.0517C155.67 42.8022 155.052 42.4852 154.595 42.1006L155.296 40.5259C155.733 40.8689 156.273 41.1548 156.918 41.3834C157.562 41.6121 158.222 41.7264 158.898 41.7264C159.469 41.7264 159.932 41.6641 160.285 41.5393C160.639 41.4146 160.898 41.2483 161.065 41.0404C161.231 40.8222 161.314 40.5779 161.314 40.3077C161.314 39.9751 161.195 39.71 160.956 39.5125C160.717 39.3047 160.405 39.1436 160.02 39.0292C159.646 38.9045 159.225 38.7902 158.757 38.6862C158.3 38.5823 157.837 38.4628 157.37 38.3276C156.912 38.1821 156.491 38.0002 156.107 37.782C155.733 37.5533 155.426 37.2519 155.187 36.8777C154.948 36.5035 154.828 36.0254 154.828 35.4434C154.828 34.8509 154.984 34.3104 155.296 33.8219C155.618 33.323 156.102 32.928 156.746 32.637C157.401 32.3356 158.227 32.1849 159.225 32.1849C159.88 32.1849 160.529 32.268 161.174 32.4343C161.818 32.6006 162.38 32.8397 162.858 33.1515L162.218 34.7262C161.73 34.4351 161.226 34.2221 160.706 34.087C160.186 33.9414 159.688 33.8687 159.209 33.8687C158.648 33.8687 158.191 33.9362 157.837 34.0714C157.494 34.2065 157.24 34.3832 157.073 34.6014C156.918 34.8197 156.84 35.0692 156.84 35.3498C156.84 35.6824 156.954 35.9527 157.183 36.1605C157.422 36.358 157.728 36.5139 158.102 36.6283C158.487 36.7426 158.913 36.8569 159.381 36.9712C159.849 37.0752 160.311 37.1947 160.769 37.3298C161.236 37.465 161.657 37.6417 162.031 37.8599C162.416 38.0782 162.723 38.3744 162.951 38.7486C163.19 39.1228 163.31 39.5957 163.31 40.1674C163.31 40.7494 163.149 41.2899 162.826 41.7888C162.515 42.2773 162.031 42.6723 161.377 42.9737C160.722 43.2647 159.895 43.4102 158.898 43.4102ZM169.096 43.2543V34.0558H165.479V32.3408H174.74V34.0558H171.123V43.2543H169.096ZM177.976 43.2543V32.3408H182.466C183.433 32.3408 184.259 32.4967 184.945 32.8085C185.642 33.1203 186.177 33.5673 186.551 34.1493C186.925 34.7314 187.112 35.4226 187.112 36.2229C187.112 37.0232 186.925 37.7144 186.551 38.2965C186.177 38.8681 185.642 39.3099 184.945 39.6217C184.259 39.9231 183.433 40.0738 182.466 40.0738H179.099L180.003 39.154V43.2543H177.976ZM185.117 43.2543L182.357 39.2943H184.524L187.299 43.2543H185.117ZM180.003 39.3722L179.099 38.4056H182.373C183.267 38.4056 183.937 38.2133 184.384 37.8287C184.841 37.4442 185.07 36.9089 185.07 36.2229C185.07 35.5265 184.841 34.9912 184.384 34.617C183.937 34.2429 183.267 34.0558 182.373 34.0558H179.099L180.003 33.058V39.3722ZM191.095 43.2543V32.3408H193.122V43.2543H191.095ZM199.659 36.8777H205.085V38.5459H199.659V36.8777ZM199.815 41.5549H205.974V43.2543H197.789V32.3408H205.755V34.0402H199.815V41.5549ZM213.331 43.4102C212.479 43.4102 211.663 43.2907 210.884 43.0517C210.104 42.8022 209.486 42.4852 209.028 42.1006L209.73 40.5259C210.166 40.8689 210.707 41.1548 211.351 41.3834C211.996 41.6121 212.656 41.7264 213.331 41.7264C213.903 41.7264 214.366 41.6641 214.719 41.5393C215.072 41.4146 215.332 41.2483 215.498 41.0404C215.665 40.8222 215.748 40.5779 215.748 40.3077C215.748 39.9751 215.628 39.71 215.389 39.5125C215.15 39.3047 214.838 39.1436 214.454 39.0292C214.08 38.9045 213.659 38.7902 213.191 38.6862C212.734 38.5823 212.271 38.4628 211.803 38.3276C211.346 38.1821 210.925 38.0002 210.541 37.782C210.166 37.5533 209.86 37.2519 209.621 36.8777C209.382 36.5035 209.262 36.0254 209.262 35.4434C209.262 34.8509 209.418 34.3104 209.73 33.8219C210.052 33.323 210.535 32.928 211.18 32.637C211.835 32.3356 212.661 32.1849 213.659 32.1849C214.314 32.1849 214.963 32.268 215.608 32.4343C216.252 32.6006 216.813 32.8397 217.291 33.1515L216.652 34.7262C216.164 34.4351 215.66 34.2221 215.14 34.087C214.62 33.9414 214.121 33.8687 213.643 33.8687C213.082 33.8687 212.625 33.9362 212.271 34.0714C211.928 34.2065 211.674 34.3832 211.507 34.6014C211.351 34.8197 211.273 35.0692 211.273 35.3498C211.273 35.6824 211.388 35.9527 211.616 36.1605C211.855 36.358 212.162 36.5139 212.536 36.6283C212.921 36.7426 213.347 36.8569 213.815 36.9712C214.282 37.0752 214.745 37.1947 215.202 37.3298C215.67 37.465 216.091 37.6417 216.465 37.8599C216.85 38.0782 217.156 38.3744 217.385 38.7486C217.624 39.1228 217.744 39.5957 217.744 40.1674C217.744 40.7494 217.582 41.2899 217.26 41.7888C216.948 42.2773 216.465 42.6723 215.81 42.9737C215.155 43.2647 214.329 43.4102 213.331 43.4102Z" fill="#504B4B"/>
<path d="M20.1474 36.389C16.5438 36.389 13.4152 35.6519 10.7617 34.1777C8.10811 32.7035 6.06061 30.6396 4.61916 27.986C3.17772 25.2997 2.457 22.1384 2.457 18.502C2.457 14.8656 3.16134 11.6715 4.57002 8.9197C6.01147 6.1351 7.99345 3.95656 10.516 2.38407C13.0713 0.811592 16.0033 0.0253519 19.312 0.0253519C21.9001 0.0253519 24.2424 0.516752 26.3391 1.49955C28.4685 2.48235 30.2047 3.84189 31.5479 5.57818C32.9238 7.31446 33.7592 9.3292 34.054 11.6224H30.0246C29.697 9.19816 28.5667 7.26532 26.6339 5.82388C24.7338 4.38244 22.3423 3.66171 19.4595 3.66171C16.8714 3.66171 14.611 4.28416 12.6781 5.52904C10.7453 6.74116 9.23833 8.44468 8.15725 10.6396C7.10893 12.8345 6.58477 15.4226 6.58477 18.4037C6.58477 21.3849 7.12531 23.9566 8.20639 26.1187C9.32023 28.2481 10.9091 29.8861 12.973 31.0327C15.0696 32.1793 17.5758 32.7526 20.4914 32.7526C22.4898 32.7526 24.2752 32.4742 25.8477 31.9172C27.4201 31.3276 28.8452 30.4267 30.1228 29.2145L34.1523 30.6887C32.3505 32.5888 30.2703 34.0139 27.9115 34.9639C25.5856 35.914 22.9975 36.389 20.1474 36.389ZM30.1228 30.6887V19.2391L31.6462 20.7624H20.4423V17.2244H34.1523V30.6887H30.1228Z" fill="url(#paint0_linear_339_24065)"/>
<path d="M49.9344 43.9041C45.8998 43.9041 42.6816 42.9114 40.2801 40.9261C37.9105 38.9408 36.5176 36.107 36.1013 32.4245H39.9438C40.2961 35.0823 41.3047 37.0836 42.9698 38.4285C44.6349 39.7734 46.9404 40.4458 49.8864 40.4458C52.384 40.4458 54.2573 39.9815 55.5061 39.0529C56.7869 38.0923 57.4273 36.6993 57.4273 34.8741C57.4273 33.3051 56.9951 32.0563 56.1305 31.1277C55.2659 30.1991 53.921 29.4306 52.0958 28.8222L46.284 26.8048C43.3381 25.7802 41.1606 24.5473 39.7517 23.1064C38.3428 21.6334 37.6383 19.7762 37.6383 17.5347C37.6383 15.6775 38.1026 14.0765 39.0312 12.7316C39.9599 11.3547 41.2727 10.282 42.9698 9.51345C44.6669 8.74495 46.6362 8.36069 48.8777 8.36069C52.336 8.36069 55.1058 9.27329 57.1872 11.0985C59.2686 12.8917 60.4694 15.4534 60.7896 18.7836H56.947C56.5308 16.382 55.6662 14.6208 54.3533 13.5001C53.0725 12.3793 51.2153 11.819 48.7817 11.819C46.4761 11.819 44.683 12.2833 43.4021 13.2119C42.1213 14.1405 41.4809 15.4534 41.4809 17.1505C41.4809 18.5914 41.9291 19.7442 42.8257 20.6088C43.7223 21.4733 45.1152 22.2258 47.0045 22.8662L53.2006 25.0277C55.8903 25.9563 57.9077 27.2211 59.2526 28.8222C60.5974 30.3912 61.2699 32.3925 61.2699 34.8261C61.2699 37.708 60.2772 39.9495 58.2919 41.5505C56.3386 43.1196 53.5528 43.9041 49.9344 43.9041Z" fill="url(#paint1_linear_339_24065)"/>
<path d="M7.29712 38.9534C12.5159 43.2486 27.4796 43.5719 33.7607 38.9534" stroke="url(#paint2_linear_339_24065)" stroke-width="2.95579"/>
<path d="M60.7784 5.23889C56.2063 0.967415 43.0967 0.645906 37.594 5.23889" stroke="url(#paint3_linear_339_24065)" stroke-width="2.95579"/>
<path d="M18.7507 37.522C18.7507 37.522 19.1202 37.6606 20.5519 37.6144C21.6603 37.5786 22.2607 37.4294 22.2607 37.4294V41.7295H18.7507V37.522Z" fill="#FF7E09"/>
<path d="M50.8027 6.90153C50.8027 6.90153 50.4333 6.72148 49.0015 6.76767C47.8931 6.80342 47.2927 6.9939 47.2927 6.9939V2.65259H50.8027V6.90153Z" fill="#FF5818"/>
<defs>
<linearGradient id="paint0_linear_339_24065" x1="36.3209" y1="52.0981" x2="13.2501" y2="-2.7268" gradientUnits="userSpaceOnUse">
<stop stop-color="#FF9500"/>
<stop offset="1" stop-color="#FF521C"/>
</linearGradient>
<linearGradient id="paint1_linear_339_24065" x1="66.4071" y1="66.3483" x2="31.5654" y2="8.76649" gradientUnits="userSpaceOnUse">
<stop stop-color="#FF9500"/>
<stop offset="1" stop-color="#FF521C"/>
</linearGradient>
<linearGradient id="paint2_linear_339_24065" x1="12.35" y1="16.4008" x2="32.8458" y2="46.8817" gradientUnits="userSpaceOnUse">
<stop stop-color="#FF7E09"/>
<stop offset="1" stop-color="#FF7F09"/>
</linearGradient>
<linearGradient id="paint3_linear_339_24065" x1="42.7433" y1="-4.70815" x2="51.1518" y2="25.9479" gradientUnits="userSpaceOnUse">
<stop stop-color="#FF5819"/>
<stop offset="1" stop-color="#FF5918"/>
</linearGradient>
</defs>
</svg>
