<svg width="247" height="44" viewBox="0 0 247 44" fill="none" xmlns="http://www.w3.org/2000/svg">
<path d="M85.4393 17.1253C84.1943 17.1253 83.0481 16.928 82.0005 16.5332C80.9682 16.1233 80.0648 15.554 79.2905 14.8253C78.5163 14.0813 77.9166 13.2084 77.4915 12.2064C77.0664 11.2044 76.8538 10.1112 76.8538 8.92704C76.8538 7.74285 77.0664 6.64974 77.4915 5.64773C77.9166 4.64571 78.5163 3.78034 79.2905 3.0516C80.08 2.30768 80.9985 1.73835 82.0461 1.34362C83.0936 0.933703 84.2399 0.728746 85.4848 0.728746C86.836 0.728746 88.0506 0.948885 89.1285 1.38916C90.2216 1.82944 91.1401 2.47468 91.884 3.32487L90.0166 5.14672C89.3942 4.52425 88.7186 4.06879 87.9898 3.78033C87.2763 3.47669 86.4868 3.32487 85.6214 3.32487C84.7864 3.32487 84.0122 3.46151 83.2986 3.73479C82.585 4.00807 81.9702 4.39521 81.454 4.89621C80.9378 5.39722 80.5355 5.98932 80.247 6.67251C79.9737 7.3557 79.8371 8.10721 79.8371 8.92704C79.8371 9.73169 79.9737 10.4756 80.247 11.1588C80.5355 11.842 80.9378 12.4417 81.454 12.9579C81.9702 13.4589 82.5774 13.846 83.2758 14.1193C83.9742 14.3926 84.7485 14.5292 85.5987 14.5292C86.3881 14.5292 87.1472 14.4078 87.876 14.1648C88.6199 13.9068 89.3259 13.4817 89.9939 12.8896L91.6791 15.0985C90.8441 15.7666 89.8724 16.2752 88.7641 16.6243C87.671 16.9583 86.5627 17.1253 85.4393 17.1253ZM88.878 14.7114V8.74486H91.6791V15.0985L88.878 14.7114ZM95.3105 16.8976V4.7368H98.0205V8.08444L97.7017 7.1052C98.066 6.28537 98.6354 5.66291 99.4096 5.23781C100.199 4.81271 101.178 4.60016 102.347 4.60016V7.31016C102.226 7.27979 102.112 7.26461 102.006 7.26461C101.899 7.24943 101.793 7.24184 101.687 7.24184C100.609 7.24184 99.7512 7.56066 99.1136 8.19831C98.4759 8.82077 98.1571 9.75447 98.1571 10.9994V16.8976H95.3105ZM110.117 17.057C108.872 17.057 107.763 16.7913 106.792 16.26C105.82 15.7134 105.053 14.9695 104.492 14.0282C103.93 13.0869 103.649 12.0166 103.649 10.8172C103.649 9.60265 103.93 8.53231 104.492 7.60621C105.053 6.66492 105.82 5.92859 106.792 5.39722C107.763 4.86585 108.872 4.60016 110.117 4.60016C111.377 4.60016 112.493 4.86585 113.464 5.39722C114.451 5.92859 115.218 6.65733 115.764 7.58343C116.326 8.50954 116.607 9.58746 116.607 10.8172C116.607 12.0166 116.326 13.0869 115.764 14.0282C115.218 14.9695 114.451 15.7134 113.464 16.26C112.493 16.7913 111.377 17.057 110.117 17.057ZM110.117 14.6203C110.815 14.6203 111.437 14.4685 111.984 14.1648C112.53 13.8612 112.956 13.4209 113.259 12.844C113.578 12.2671 113.737 11.5915 113.737 10.8172C113.737 10.0277 113.578 9.35214 113.259 8.79041C112.956 8.21349 112.53 7.77321 111.984 7.46957C111.437 7.16593 110.822 7.01411 110.139 7.01411C109.441 7.01411 108.818 7.16593 108.272 7.46957C107.741 7.77321 107.315 8.21349 106.997 8.79041C106.678 9.35214 106.518 10.0277 106.518 10.8172C106.518 11.5915 106.678 12.2671 106.997 12.844C107.315 13.4209 107.741 13.8612 108.272 14.1648C108.818 14.4685 109.433 14.6203 110.117 14.6203ZM121.683 16.8976L117.219 4.7368H119.906L123.732 15.4629H122.457L126.465 4.7368H128.856L132.75 15.4629H131.498L135.437 4.7368H137.965L133.479 16.8976H130.746L127.194 7.40125H128.036L124.415 16.8976H121.683ZM144.834 17.057C143.497 17.057 142.465 16.7154 141.736 16.0322C141.008 15.3339 140.643 14.3091 140.643 12.9579V2.04958H143.49V12.8896C143.49 13.4665 143.634 13.9143 143.923 14.2332C144.226 14.552 144.644 14.7114 145.175 14.7114C145.813 14.7114 146.344 14.5444 146.769 14.2104L147.566 16.2372C147.232 16.5105 146.822 16.7154 146.337 16.8521C145.851 16.9887 145.35 17.057 144.834 17.057ZM138.639 7.1052V4.8279H146.746V7.1052H138.639ZM156.808 4.60016C157.78 4.60016 158.645 4.78994 159.404 5.16949C160.179 5.54904 160.786 6.13355 161.226 6.92302C161.666 7.6973 161.887 8.69931 161.887 9.92906V16.8976H159.04V10.2934C159.04 9.2155 158.782 8.41086 158.266 7.87948C157.765 7.34811 157.059 7.08243 156.148 7.08243C155.48 7.08243 154.888 7.21907 154.372 7.49234C153.855 7.76562 153.453 8.17553 153.165 8.72209C152.891 9.25346 152.755 9.92906 152.755 10.7489V16.8976H149.908V7.79326e-06H152.755V8.01612L152.14 7.01411C152.565 6.23982 153.18 5.64773 153.984 5.23781C154.804 4.81271 155.745 4.60016 156.808 4.60016ZM170.713 17.1253C169.468 17.1253 168.276 16.9508 167.137 16.6016C165.999 16.2372 165.095 15.7741 164.427 15.2124L165.452 12.9123C166.09 13.4133 166.879 13.8308 167.821 14.1648C168.762 14.4989 169.726 14.6659 170.713 14.6659C171.548 14.6659 172.223 14.5748 172.74 14.3926C173.256 14.2104 173.635 13.9675 173.878 13.6638C174.121 13.345 174.243 12.9882 174.243 12.5935C174.243 12.1077 174.068 11.7205 173.719 11.4321C173.37 11.1284 172.914 10.8931 172.352 10.7261C171.806 10.5439 171.191 10.3769 170.508 10.2251C169.84 10.0733 169.164 9.8987 168.481 9.70133C167.813 9.48878 167.198 9.22309 166.636 8.90427C166.09 8.57027 165.642 8.12999 165.293 7.58343C164.944 7.03688 164.769 6.33851 164.769 5.48831C164.769 4.62294 164.997 3.83347 165.452 3.11992C165.923 2.39118 166.629 1.81426 167.57 1.38916C168.527 0.948885 169.734 0.728746 171.191 0.728746C172.147 0.728746 173.096 0.850202 174.038 1.09312C174.979 1.33603 175.799 1.68521 176.497 2.14068L175.563 4.44075C174.85 4.01566 174.114 3.70442 173.354 3.50706C172.595 3.29451 171.867 3.18823 171.168 3.18823C170.348 3.18823 169.68 3.28692 169.164 3.48428C168.663 3.68165 168.291 3.93975 168.048 4.25857C167.821 4.57739 167.707 4.94176 167.707 5.35168C167.707 5.8375 167.874 6.23223 168.208 6.53587C168.557 6.82433 169.005 7.05206 169.551 7.21907C170.113 7.38607 170.736 7.55307 171.419 7.72007C172.102 7.87189 172.778 8.04649 173.446 8.24385C174.129 8.44122 174.744 8.69931 175.29 9.01814C175.852 9.33696 176.3 9.76965 176.634 10.3162C176.983 10.8628 177.158 11.5535 177.158 12.3885C177.158 13.2387 176.922 14.0282 176.452 14.7569C175.996 15.4705 175.29 16.0474 174.334 16.4877C173.377 16.9128 172.17 17.1253 170.713 17.1253ZM186.561 17.057C185.574 17.057 184.671 16.8293 183.851 16.3738C183.046 15.9184 182.401 15.2352 181.915 14.3243C181.444 13.3982 181.209 12.2291 181.209 10.8172C181.209 9.3901 181.437 8.22108 181.892 7.31016C182.363 6.39924 183 5.72363 183.805 5.28336C184.61 4.8279 185.528 4.60016 186.561 4.60016C187.76 4.60016 188.815 4.85826 189.726 5.37445C190.652 5.89064 191.381 6.61178 191.912 7.53789C192.459 8.46399 192.732 9.5571 192.732 10.8172C192.732 12.0773 192.459 13.178 191.912 14.1193C191.381 15.0454 190.652 15.7666 189.726 16.2827C188.815 16.7989 187.76 17.057 186.561 17.057ZM179.82 21.3156V4.7368H182.53V7.60621L182.439 10.84L182.666 14.0738V21.3156H179.82ZM186.242 14.6203C186.925 14.6203 187.532 14.4685 188.064 14.1648C188.61 13.8612 189.043 13.4209 189.362 12.844C189.681 12.2671 189.84 11.5915 189.84 10.8172C189.84 10.0277 189.681 9.35214 189.362 8.79041C189.043 8.21349 188.61 7.77321 188.064 7.46957C187.532 7.16593 186.925 7.01411 186.242 7.01411C185.559 7.01411 184.944 7.16593 184.397 7.46957C183.851 7.77321 183.418 8.21349 183.099 8.79041C182.78 9.35214 182.621 10.0277 182.621 10.8172C182.621 11.5915 182.78 12.2671 183.099 12.844C183.418 13.4209 183.851 13.8612 184.397 14.1648C184.944 14.4685 185.559 14.6203 186.242 14.6203ZM202.332 4.60016C203.304 4.60016 204.169 4.78994 204.928 5.16949C205.703 5.54904 206.31 6.13355 206.75 6.92302C207.19 7.6973 207.41 8.69931 207.41 9.92906V16.8976H204.564V10.2934C204.564 9.2155 204.306 8.41086 203.79 7.87948C203.289 7.34811 202.583 7.08243 201.672 7.08243C201.004 7.08243 200.412 7.21907 199.895 7.49234C199.379 7.76562 198.977 8.17553 198.688 8.72209C198.415 9.25346 198.278 9.92906 198.278 10.7489V16.8976H195.432V7.79326e-06H198.278V8.01612L197.664 7.01411C198.089 6.23982 198.704 5.64773 199.508 5.23781C200.328 4.81271 201.269 4.60016 202.332 4.60016ZM216.76 17.057C215.409 17.057 214.224 16.7913 213.207 16.26C212.205 15.7134 211.423 14.9695 210.862 14.0282C210.315 13.0869 210.042 12.0166 210.042 10.8172C210.042 9.60265 210.308 8.53231 210.839 7.60621C211.385 6.66492 212.129 5.92859 213.071 5.39722C214.027 4.86585 215.113 4.60016 216.327 4.60016C217.511 4.60016 218.567 4.85826 219.493 5.37445C220.419 5.89064 221.148 6.61938 221.679 7.56066C222.21 8.50195 222.476 9.61024 222.476 10.8855C222.476 11.007 222.468 11.1436 222.453 11.2954C222.453 11.4473 222.446 11.5915 222.43 11.7281H212.296V9.83797H220.927L219.811 10.4301C219.827 9.73169 219.682 9.11682 219.379 8.58545C219.075 8.05408 218.658 7.63657 218.126 7.33293C217.61 7.02929 217.01 6.87747 216.327 6.87747C215.629 6.87747 215.014 7.02929 214.483 7.33293C213.966 7.63657 213.556 8.06167 213.253 8.60822C212.964 9.13959 212.82 9.76965 212.82 10.4984V10.9538C212.82 11.6826 212.987 12.3278 213.321 12.8896C213.655 13.4513 214.126 13.884 214.733 14.1876C215.34 14.4913 216.039 14.6431 216.828 14.6431C217.511 14.6431 218.126 14.5368 218.673 14.3243C219.219 14.1117 219.705 13.7777 220.13 13.3222L221.656 15.0758C221.11 15.7134 220.419 16.2068 219.584 16.556C218.764 16.89 217.823 17.057 216.76 17.057ZM225.21 16.8976V4.7368H227.92V8.08444L227.601 7.1052C227.966 6.28537 228.535 5.66291 229.309 5.23781C230.099 4.81271 231.078 4.60016 232.247 4.60016V7.31016C232.126 7.27979 232.012 7.26461 231.906 7.26461C231.799 7.24943 231.693 7.24184 231.587 7.24184C230.509 7.24184 229.651 7.56066 229.013 8.19831C228.376 8.82077 228.057 9.75447 228.057 10.9994V16.8976H225.21ZM240.267 17.057C238.916 17.057 237.731 16.7913 236.714 16.26C235.712 15.7134 234.93 14.9695 234.369 14.0282C233.822 13.0869 233.549 12.0166 233.549 10.8172C233.549 9.60265 233.814 8.53231 234.346 7.60621C234.892 6.66492 235.636 5.92859 236.578 5.39722C237.534 4.86585 238.62 4.60016 239.834 4.60016C241.018 4.60016 242.073 4.85826 243 5.37445C243.926 5.89064 244.654 6.61938 245.186 7.56066C245.717 8.50195 245.983 9.61024 245.983 10.8855C245.983 11.007 245.975 11.1436 245.96 11.2954C245.96 11.4473 245.953 11.5915 245.937 11.7281H235.803V9.83797H244.434L243.318 10.4301C243.334 9.73169 243.189 9.11682 242.886 8.58545C242.582 8.05408 242.165 7.63657 241.633 7.33293C241.117 7.02929 240.517 6.87747 239.834 6.87747C239.136 6.87747 238.521 7.02929 237.99 7.33293C237.473 7.63657 237.063 8.06167 236.76 8.60822C236.471 9.13959 236.327 9.76965 236.327 10.4984V10.9538C236.327 11.6826 236.494 12.3278 236.828 12.8896C237.162 13.4513 237.633 13.884 238.24 14.1876C238.847 14.4913 239.546 14.6431 240.335 14.6431C241.018 14.6431 241.633 14.5368 242.18 14.3243C242.726 14.1117 243.212 13.7777 243.637 13.3222L245.163 15.0758C244.616 15.7134 243.926 16.2068 243.091 16.556C242.271 16.89 241.33 17.057 240.267 17.057Z" fill="#FF5A18"/>
<path d="M105.871 43.2544V32.3408H107.898V43.2544H105.871ZM112.565 43.2544V32.3408H114.233L121.077 40.7442H120.251V32.3408H122.262V43.2544H120.594L113.75 34.8509H114.576V43.2544H112.565ZM126.902 43.2544V32.3408H131.672C132.857 32.3408 133.897 32.5695 134.791 33.0268C135.684 33.4841 136.381 34.1182 136.88 34.9289C137.379 35.7396 137.628 36.6958 137.628 37.7976C137.628 38.8889 137.379 39.8452 136.88 40.6663C136.381 41.477 135.684 42.111 134.791 42.5684C133.897 43.0257 132.857 43.2544 131.672 43.2544H126.902ZM128.928 41.5394H131.579C132.4 41.5394 133.107 41.3835 133.699 41.0717C134.302 40.7598 134.765 40.3233 135.087 39.762C135.419 39.2008 135.586 38.5459 135.586 37.7976C135.586 37.0388 135.419 36.384 135.087 35.8332C134.765 35.2719 134.302 34.8353 133.699 34.5235C133.107 34.2117 132.4 34.0558 131.579 34.0558H128.928V41.5394ZM146.19 43.4103C144.693 43.4103 143.519 42.9893 142.667 42.1474C141.825 41.3055 141.404 40.0894 141.404 38.4992V32.3408H143.431V38.4212C143.431 39.5438 143.67 40.3597 144.148 40.869C144.636 41.3783 145.322 41.6329 146.206 41.6329C147.089 41.6329 147.77 41.3783 148.248 40.869C148.726 40.3597 148.965 39.5438 148.965 38.4212V32.3408H150.961V38.4992C150.961 40.0894 150.535 41.3055 149.682 42.1474C148.841 42.9893 147.676 43.4103 146.19 43.4103ZM158.898 43.4103C158.045 43.4103 157.229 43.2907 156.45 43.0517C155.67 42.8022 155.052 42.4852 154.595 42.1006L155.296 40.526C155.733 40.869 156.273 41.1548 156.918 41.3835C157.562 41.6121 158.222 41.7265 158.898 41.7265C159.469 41.7265 159.932 41.6641 160.285 41.5394C160.639 41.4147 160.898 41.2484 161.065 41.0405C161.231 40.8222 161.314 40.5779 161.314 40.3077C161.314 39.9751 161.195 39.7101 160.956 39.5126C160.717 39.3047 160.405 39.1436 160.02 39.0293C159.646 38.9045 159.225 38.7902 158.757 38.6863C158.3 38.5823 157.837 38.4628 157.37 38.3277C156.912 38.1822 156.491 38.0003 156.107 37.782C155.733 37.5533 155.426 37.2519 155.187 36.8777C154.948 36.5036 154.828 36.0254 154.828 35.4434C154.828 34.8509 154.984 34.3105 155.296 33.8219C155.618 33.323 156.102 32.9281 156.746 32.637C157.401 32.3356 158.227 32.1849 159.225 32.1849C159.88 32.1849 160.529 32.2681 161.174 32.4344C161.818 32.6007 162.38 32.8397 162.858 33.1515L162.218 34.7262C161.73 34.4352 161.226 34.2221 160.706 34.087C160.186 33.9415 159.688 33.8687 159.209 33.8687C158.648 33.8687 158.191 33.9363 157.837 34.0714C157.494 34.2065 157.24 34.3832 157.073 34.6015C156.918 34.8198 156.84 35.0692 156.84 35.3498C156.84 35.6824 156.954 35.9527 157.183 36.1606C157.422 36.358 157.728 36.5139 158.102 36.6283C158.487 36.7426 158.913 36.8569 159.381 36.9713C159.849 37.0752 160.311 37.1947 160.769 37.3299C161.236 37.465 161.657 37.6417 162.031 37.86C162.416 38.0782 162.723 38.3744 162.951 38.7486C163.19 39.1228 163.31 39.5957 163.31 40.1674C163.31 40.7494 163.149 41.2899 162.826 41.7888C162.515 42.2773 162.031 42.6723 161.377 42.9737C160.722 43.2648 159.895 43.4103 158.898 43.4103ZM169.096 43.2544V34.0558H165.479V32.3408H174.74V34.0558H171.123V43.2544H169.096ZM177.976 43.2544V32.3408H182.466C183.433 32.3408 184.259 32.4967 184.945 32.8085C185.642 33.1204 186.177 33.5673 186.551 34.1493C186.925 34.7314 187.112 35.4226 187.112 36.2229C187.112 37.0232 186.925 37.7144 186.551 38.2965C186.177 38.8682 185.642 39.3099 184.945 39.6217C184.259 39.9231 183.433 40.0738 182.466 40.0738H179.099L180.003 39.154V43.2544H177.976ZM185.117 43.2544L182.357 39.2943H184.524L187.299 43.2544H185.117ZM180.003 39.3723L179.099 38.4056H182.373C183.267 38.4056 183.937 38.2133 184.384 37.8288C184.841 37.4442 185.07 36.9089 185.07 36.2229C185.07 35.5265 184.841 34.9912 184.384 34.6171C183.937 34.2429 183.267 34.0558 182.373 34.0558H179.099L180.003 33.058V39.3723ZM191.095 43.2544V32.3408H193.122V43.2544H191.095ZM199.659 36.8777H205.085V38.5459H199.659V36.8777ZM199.815 41.555H205.974V43.2544H197.789V32.3408H205.755V34.0402H199.815V41.555ZM213.331 43.4103C212.479 43.4103 211.663 43.2907 210.884 43.0517C210.104 42.8022 209.486 42.4852 209.028 42.1006L209.73 40.526C210.166 40.869 210.707 41.1548 211.351 41.3835C211.996 41.6121 212.656 41.7265 213.331 41.7265C213.903 41.7265 214.366 41.6641 214.719 41.5394C215.072 41.4147 215.332 41.2484 215.498 41.0405C215.665 40.8222 215.748 40.5779 215.748 40.3077C215.748 39.9751 215.628 39.7101 215.389 39.5126C215.15 39.3047 214.838 39.1436 214.454 39.0293C214.08 38.9045 213.659 38.7902 213.191 38.6863C212.734 38.5823 212.271 38.4628 211.803 38.3277C211.346 38.1822 210.925 38.0003 210.541 37.782C210.166 37.5533 209.86 37.2519 209.621 36.8777C209.382 36.5036 209.262 36.0254 209.262 35.4434C209.262 34.8509 209.418 34.3105 209.73 33.8219C210.052 33.323 210.535 32.9281 211.18 32.637C211.835 32.3356 212.661 32.1849 213.659 32.1849C214.314 32.1849 214.963 32.2681 215.608 32.4344C216.252 32.6007 216.813 32.8397 217.291 33.1515L216.652 34.7262C216.164 34.4352 215.66 34.2221 215.14 34.087C214.62 33.9415 214.121 33.8687 213.643 33.8687C213.082 33.8687 212.625 33.9363 212.271 34.0714C211.928 34.2065 211.674 34.3832 211.507 34.6015C211.351 34.8198 211.273 35.0692 211.273 35.3498C211.273 35.6824 211.388 35.9527 211.616 36.1606C211.855 36.358 212.162 36.5139 212.536 36.6283C212.921 36.7426 213.347 36.8569 213.815 36.9713C214.282 37.0752 214.745 37.1947 215.202 37.3299C215.67 37.465 216.091 37.6417 216.465 37.86C216.85 38.0782 217.156 38.3744 217.385 38.7486C217.624 39.1228 217.744 39.5957 217.744 40.1674C217.744 40.7494 217.582 41.2899 217.26 41.7888C216.948 42.2773 216.465 42.6723 215.81 42.9737C215.155 43.2648 214.329 43.4103 213.331 43.4103Z" fill="#E2E2E2"/>
<path d="M20.1474 36.389C16.5438 36.389 13.4152 35.6519 10.7617 34.1777C8.10811 32.7035 6.06061 30.6396 4.61916 27.9861C3.17772 25.2997 2.457 22.1384 2.457 18.502C2.457 14.8657 3.16134 11.6716 4.57002 8.91973C6.01147 6.13513 7.99345 3.95659 10.516 2.3841C13.0713 0.811623 16.0033 0.0253824 19.312 0.0253824C21.9001 0.0253824 24.2424 0.516782 26.3391 1.49958C28.4685 2.48238 30.2047 3.84193 31.5479 5.57821C32.9238 7.31449 33.7592 9.32923 34.054 11.6224H30.0246C29.697 9.19819 28.5667 7.26535 26.6339 5.82391C24.7338 4.38247 22.3423 3.66175 19.4595 3.66175C16.8714 3.66175 14.611 4.28419 12.6781 5.52907C10.7453 6.74119 9.23833 8.44471 8.15725 10.6396C7.10893 12.8346 6.58477 15.4226 6.58477 18.4038C6.58477 21.3849 7.12531 23.9566 8.20639 26.1187C9.32023 28.2481 10.9091 29.8861 12.973 31.0327C15.0696 32.1794 17.5758 32.7527 20.4914 32.7527C22.4898 32.7527 24.2752 32.4742 25.8477 31.9173C27.4201 31.3276 28.8452 30.4267 30.1228 29.2146L34.1523 30.6888C32.3505 32.5889 30.2703 34.0139 27.9115 34.964C25.5856 35.914 22.9975 36.389 20.1474 36.389ZM30.1228 30.6888V19.2391L31.6462 20.7625H20.4423V17.2244H34.1523V30.6888H30.1228Z" fill="url(#paint0_linear_339_24053)"/>
<path d="M49.9344 43.9041C45.8998 43.9041 42.6816 42.9115 40.2801 40.9262C37.9105 38.9409 36.5176 36.107 36.1013 32.4246H39.9438C40.2961 35.0823 41.3047 37.0837 42.9698 38.4285C44.6349 39.7734 46.9404 40.4459 49.8864 40.4459C52.384 40.4459 54.2573 39.9816 55.5061 39.053C56.7869 38.0923 57.4273 36.6994 57.4273 34.8742C57.4273 33.3052 56.9951 32.0563 56.1305 31.1277C55.2659 30.1991 53.921 29.4306 52.0958 28.8222L46.284 26.8049C43.3381 25.7802 41.1606 24.5474 39.7517 23.1065C38.3428 21.6335 37.6383 19.7763 37.6383 17.5348C37.6383 15.6776 38.1026 14.0765 39.0312 12.7316C39.9599 11.3547 41.2727 10.282 42.9698 9.51351C44.6669 8.74501 46.6362 8.36075 48.8777 8.36075C52.336 8.36075 55.1058 9.27335 57.1872 11.0986C59.2686 12.8917 60.4694 15.4534 60.7896 18.7836H56.947C56.5308 16.382 55.6662 14.6209 54.3533 13.5001C53.0725 12.3794 51.2153 11.819 48.7817 11.819C46.4761 11.819 44.683 12.2833 43.4021 13.2119C42.1213 14.1406 41.4809 15.4534 41.4809 17.1505C41.4809 18.5915 41.9291 19.7442 42.8257 20.6088C43.7223 21.4734 45.1152 22.2259 47.0045 22.8663L53.2006 25.0277C55.8903 25.9563 57.9077 27.2212 59.2526 28.8222C60.5974 30.3913 61.2699 32.3926 61.2699 34.8262C61.2699 37.7081 60.2772 39.9495 58.2919 41.5506C56.3386 43.1196 53.5528 43.9041 49.9344 43.9041Z" fill="url(#paint1_linear_339_24053)"/>
<path d="M7.29712 38.9535C12.5159 43.2486 27.4796 43.5719 33.7607 38.9535" stroke="url(#paint2_linear_339_24053)" stroke-width="2.95579"/>
<path d="M60.7784 5.23895C56.2063 0.967476 43.0967 0.645967 37.594 5.23895" stroke="url(#paint3_linear_339_24053)" stroke-width="2.95579"/>
<path d="M18.7507 37.5221C18.7507 37.5221 19.1202 37.6606 20.5519 37.6144C21.6603 37.5787 22.2607 37.4294 22.2607 37.4294V41.7295H18.7507V37.5221Z" fill="#FF7E09"/>
<path d="M50.8027 6.90156C50.8027 6.90156 50.4333 6.72151 49.0015 6.7677C47.8931 6.80345 47.2927 6.99393 47.2927 6.99393V2.65262H50.8027V6.90156Z" fill="#FF5818"/>
<defs>
<linearGradient id="paint0_linear_339_24053" x1="36.3209" y1="52.0981" x2="13.2501" y2="-2.72677" gradientUnits="userSpaceOnUse">
<stop stop-color="#FF9500"/>
<stop offset="1" stop-color="#FF521C"/>
</linearGradient>
<linearGradient id="paint1_linear_339_24053" x1="66.4071" y1="66.3484" x2="31.5654" y2="8.76655" gradientUnits="userSpaceOnUse">
<stop stop-color="#FF9500"/>
<stop offset="1" stop-color="#FF521C"/>
</linearGradient>
<linearGradient id="paint2_linear_339_24053" x1="12.35" y1="16.4008" x2="32.8458" y2="46.8817" gradientUnits="userSpaceOnUse">
<stop stop-color="#FF7E09"/>
<stop offset="1" stop-color="#FF7F09"/>
</linearGradient>
<linearGradient id="paint3_linear_339_24053" x1="42.7433" y1="-4.70809" x2="51.1518" y2="25.9479" gradientUnits="userSpaceOnUse">
<stop stop-color="#FF5819"/>
<stop offset="1" stop-color="#FF5918"/>
</linearGradient>
</defs>
</svg>
